<svg xmlns="http://www.w3.org/2000/svg" viewBox="0 0 45.186 45.186" width="512" height="512"><path d="M45.112 17.412a2.018 2.018 0 0 0-1.93-1.468H28.905L24.826 3.389c-.103-.313-.203-.626-.306-.938-.002-.005-.005-.009-.006-.015a2.1 2.1 0 0 0-.923-1.17l-.027-.018a1.965 1.965 0 0 0-.263-.123c-.037-.015-.072-.031-.11-.043-.022-.008-.044-.021-.067-.027-.045-.012-.088-.013-.132-.022a1.894 1.894 0 0 0-.213-.036c-.054-.005-.106-.005-.16-.006-.08-.001-.16 0-.241.009-.045.005-.088.014-.132.022-.061.011-.122.014-.184.031-.033.009-.062.026-.094.037l-.03.012a2.083 2.083 0 0 0-1.266 1.333l-.007.017c-1.462 4.498-2.922 8.996-4.385 13.493H2.002c-.89 0-1.692.61-1.929 1.468-.256.931.184 1.724.919 2.259l11.39 8.274c-1.379 4.245-2.758 8.49-4.139 12.735l-.305.938c-.515 1.584 1.506 3.299 2.939 2.258l11.717-8.513 10.92 7.935.797.578c1.434 1.041 3.453-.674 2.938-2.258-1.48-4.559-2.963-9.116-4.444-13.675l10.592-7.694.797-.58c.735-.534 1.174-1.327.918-2.258zm-21.51 13.765c-.521-.379-1.497-.379-2.02 0l-7.92 5.755 2.688-8.272.305-.938c.296-.91-.211-1.744-.919-2.258l-7.597-5.519h9.59c.921 0 1.651-.616 1.929-1.468l2.934-9.029c.875 2.697 1.751 5.393 2.628 8.089.102.313.202.625.305.938.277.852 1.008 1.468 1.929 1.468h9.59l-6.797 4.938-.799.58c-.708.516-1.216 1.348-.919 2.258l2.993 9.211-7.122-5.174-.798-.579z" fill="#cf576b"/></svg>